 <svg  version="1.0" xmlns="http://www.w3.org/2000/svg"  width="119.000000pt" height="118.000000pt" viewBox="0 0 119.000000 118.000000"  preserveAspectRatio="xMidYMid meet">  <g transform="translate(0.000000,118.000000) scale(0.100000,-0.100000)" fill="#3244db" stroke="none"> <path d="M473 925 c-110 -30 -199 -97 -248 -186 -23 -44 -30 -69 -33 -135 -4 -72 -1 -89 21 -137 13 -30 41 -72 61 -94 41 -46 42 -52 21 -93 -19 -37 -7 -39 47 -11 36 20 36 20 89 0 163 -62 364 -17 478 106 176 193 70 478 -204 550 -72 18 -163 18 -232 0z m206 -26 c151 -34 269 -151 287 -283 4 -27 0 -64 -11 -101 -23 -80 -121 -181 -210 -215 -83 -33 -225 -34 -304 -2 -31 12 -65 19 -78 16 -16 -5 -23 -2 -23 9 0 8 -20 41 -44 74 -67 90 -80 120 -80 193 0 77 18 121 80 190 96 105 243 152 383 119z"/> <path d="M353 805 c-39 -17 -89 -84 -104 -139 -32 -118 23 -261 114 -295 45 -17 431 -14 465 3 154 80 146 376 -11 435 -44 17 -424 14 -464 -4z m467 -28 c13 -7 38 -34 54 -61 56 -90 42 -229 -31 -298 -24 -22 -30 -23 -238 -26 -247 -4 -257 -1 -302 76 -24 40 -28 58 -28 122 0 64 4 82 28 122 44 75 52 77 287 77 144 1 212 -3 230 -12z"/> <path d="M389 639 c-32 -32 -19 -43 51 -43 38 0 65 5 68 12 6 19 -37 52 -68 52 -17 0 -39 -9 -51 -21z"/> <path d="M691 636 c-13 -14 -21 -28 -18 -33 3 -5 34 -8 69 -7 70 1 87 19 46 48 -33 23 -71 20 -97 -8z"/> <path d="M546 553 c-11 -12 17 -33 44 -33 15 0 33 6 39 13 14 18 2 30 -16 15 -10 -8 -20 -8 -37 0 -13 6 -27 8 -30 5z"/> <path d="M110 774 c0 -77 0 -77 20 -59 28 25 26 128 -2 133 -16 3 -18 -6 -18 -74z"/> <path d="M1037 843 c-4 -3 -7 -30 -7 -58 0 -39 5 -56 20 -70 20 -18 20 -17 20 58 0 58 -3 77 -13 77 -8 0 -17 -3 -20 -7z"/> <path d="M156 709 c-75 -59 -75 -179 0 -238 15 -12 28 -20 30 -18 2 2 -3 25 -11 52 -19 61 -19 109 0 170 8 27 13 50 11 52 -2 2 -15 -6 -30 -18z"/> <path d="M990 728 c0 -2 7 -21 15 -43 18 -51 18 -139 0 -190 -8 -22 -15 -41 -15 -43 0 -2 13 5 30 14 86 51 78 206 -12 255 -10 5 -18 8 -18 7z"/> </g> </svg> 